<?xml version="1.0" encoding="UTF-8"?>
<mxfile host="app.diagrams.net" modified="2024-01-01T00:00:00.000Z" agent="Mozilla/5.0" version="21.1.9" etag="your-etag" type="device">
  <diagram name="HPC Infrastructure" id="architecture">
    <mxGraphModel dx="1422" dy="798" grid="1" gridSize="10" guides="1" tooltips="1" connect="1" arrows="1" fold="1" page="1" pageScale="1" pageWidth="827" pageHeight="1169" math="0" shadow="0">
      <root>
        <mxCell id="0" />
        <mxCell id="1" parent="0" />
        
        <!-- VPC -->
        <mxCell id="vpc" value="VPC" style="swimlane;whiteSpace=wrap;html=1;fillColor=#dae8fc;strokeColor=#6c8ebf;" vertex="1" parent="1">
          <mxGeometry x="40" y="40" width="720" height="480" as="geometry" />
        </mxCell>
        
        <!-- Public Subnet -->
        <mxCell id="public_subnet" value="Public Subnet" style="swimlane;whiteSpace=wrap;html=1;fillColor=#d5e8d4;strokeColor=#82b366;" vertex="1" parent="vpc">
          <mxGeometry x="40" y="40" width="640" height="120" as="geometry" />
        </mxCell>
        
        <!-- Private Subnet -->
        <mxCell id="private_subnet" value="Private Subnet" style="swimlane;whiteSpace=wrap;html=1;fillColor=#ffe6cc;strokeColor=#d79b00;" vertex="1" parent="vpc">
          <mxGeometry x="40" y="200" width="640" height="240" as="geometry" />
        </mxCell>
        
        <!-- Internet Gateway -->
        <mxCell id="igw" value="Internet Gateway" style="shape=image;verticalLabelPosition=bottom;verticalAlign=top;imageAspect=0;aspect=fixed;image=data:image/svg+xml,PHN2ZyB4bWxucz0iaHR0cDovL3d3dy53My5vcmcvMjAwMC9zdmciIHZpZXdCb3g9IjAgMCAyNCAyNCI+PHBhdGggZmlsbD0iIzY2NjY2NiIgZD0iTTE2IDZ2Mmg0VjZoLTQuem0tNCAwSDh2Mmg0VjZ6bTAgNkg4djJoNHYtMnpNOCAxNGg0djJIOHYtMnpNOCAxOGg0djJIOHYtMnpNMTYgMThoNHYySDE2di0yek0xNiAxNGg0djJIMTZ2LTJ6Ii8+PC9zdmc+;" vertex="1" parent="public_subnet">
          <mxGeometry x="40" y="40" width="40" height="40" as="geometry" />
        </mxCell>
        
        <!-- NAT Gateway -->
        <mxCell id="nat" value="NAT Gateway" style="shape=image;verticalLabelPosition=bottom;verticalAlign=top;imageAspect=0;aspect=fixed;image=data:image/svg+xml,PHN2ZyB4bWxucz0iaHR0cDovL3d3dy53My5vcmcvMjAwMC9zdmciIHZpZXdCb3g9IjAgMCAyNCAyNCI+PHBhdGggZmlsbD0iIzY2NjY2NiIgZD0iTTE2IDZ2Mmg0VjZoLTQuem0tNCAwSDh2Mmg0VjZ6bTAgNkg4djJoNHYtMnpNOCAxNGg0djJIOHYtMnpNOCAxOGg0djJIOHYtMnpNMTYgMThoNHYySDE2di0yek0xNiAxNGg0djJIMTZ2LTJ6Ii8+PC9zdmc+;" vertex="1" parent="public_subnet">
          <mxGeometry x="120" y="40" width="40" height="40" as="geometry" />
        </mxCell>
        
        <!-- Head Node -->
        <mxCell id="head_node" value="Head Node&#xa;(C5.xlarge)" style="shape=image;verticalLabelPosition=bottom;verticalAlign=top;imageAspect=0;aspect=fixed;image=data:image/svg+xml,PHN2ZyB4bWxucz0iaHR0cDovL3d3dy53My5vcmcvMjAwMC9zdmciIHZpZXdCb3g9IjAgMCAyNCAyNCI+PHBhdGggZmlsbD0iIzY2NjY2NiIgZD0iTTQgMmgxNnYyMEg0VjJ6bTE2IDBIMTR2MmgydjE2SDZ2LTJoLTR2MTZoMTZWMnptLTQgMHYySDh2LTJoOHptMCA0SDh2Mmg4di0yek04IDEwSDZ2Mmgydi0yem0wIDRoLTJ2Mmgydi0yem0wIDRoLTJ2Mmgydi0yem0wIDRoLTJ2Mmgydi0yem0wIDRoLTJ2Mmgydi0yem0wIDRoLTJ2Mmgydi0yem0wIDRoLTJ2Mmgydi0yek4gMThoOHYtMkg4djJ6Ii8+PC9zdmc+;" vertex="1" parent="private_subnet">
          <mxGeometry x="40" y="40" width="40" height="40" as="geometry" />
        </mxCell>
        
        <!-- Compute Nodes -->
        <mxCell id="compute_nodes" value="Compute Nodes&#xa;(HPC6a.48xlarge)" style="shape=image;verticalLabelPosition=bottom;verticalAlign=top;imageAspect=0;aspect=fixed;image=data:image/svg+xml,PHN2ZyB4bWxucz0iaHR0cDovL3d3dy53My5vcmcvMjAwMC9zdmciIHZpZXdCb3g9IjAgMCAyNCAyNCI+PHBhdGggZmlsbD0iIzY2NjY2NiIgZD0iTTQgMmgxNnYyMEg0VjJ6bTE2IDBIMTR2MmgydjE2SDZ2LTJoLTR2MTZoMTZWMnptLTQgMHYySDh2LTJoOHptMCA0SDh2Mmg4di0yek04IDEwSDZ2Mmgydi0yem0wIDRoLTJ2Mmgydi0yem0wIDRoLTJ2Mmgydi0yem0wIDRoLTJ2Mmgydi0yem0wIDRoLTJ2Mmgydi0yek04IDE4aDh2LTJIOHYyek0xMiAxMGgydjJoLTJ2LTJ6bTAgNGgydjJoLTJ2LTJ6bTAgNGgydjJoLTJ2LTJ6bTAgNGgydjJoLTJ2LTJ6Ii8+PC9zdmc+;" vertex="1" parent="private_subnet">
          <mxGeometry x="120" y="40" width="40" height="40" as="geometry" />
        </mxCell>
        
        <!-- FSx for Lustre -->
        <mxCell id="fsx" value="FSx for Lustre" style="shape=image;verticalLabelPosition=bottom;verticalAlign=top;imageAspect=0;aspect=fixed;image=data:image/svg+xml,PHN2ZyB4bWxucz0iaHR0cDovL3d3dy53My5vcmcvMjAwMC9zdmciIHZpZXdCb3g9IjAgMCAyNCAyNCI+PHBhdGggZmlsbD0iIzY2NjY2NiIgZD0iTTQgMmgxNnYyMEg0VjJ6bTE2IDBIMTR2MmgydjE2SDZ2LTJoLTR2MTZoMTZWMnptLTQgMHYySDh2LTJoOHptMCA0SDh2Mmg4di0yek04IDEwSDZ2Mmgydi0yem0wIDRoLTJ2Mmgydi0yem0wIDRoLTJ2Mmgydi0yem0wIDRoLTJ2Mmgydi0yem0wIDRoLTJ2Mmgydi0yek04IDE4aDh2LTJIOHYyek0xMiAxMGgydjJoLTJ2LTJ6bTAgNGgydjJoLTJ2LTJ6bTAgNGgydjJoLTJ2LTJ6bTAgNGgydjJoLTJ2LTJ6Ii8+PC9zdmc+;" vertex="1" parent="private_subnet">
          <mxGeometry x="200" y="40" width="40" height="40" as="geometry" />
        </mxCell>
        
        <!-- S3 -->
        <mxCell id="s3" value="S3" style="shape=image;verticalLabelPosition=bottom;verticalAlign=top;imageAspect=0;aspect=fixed;image=data:image/svg+xml,PHN2ZyB4bWxucz0iaHR0cDovL3d3dy53My5vcmcvMjAwMC9zdmciIHZpZXdCb3g9IjAgMCAyNCAyNCI+PHBhdGggZmlsbD0iIzY2NjY2NiIgZD0iTTQgMmgxNnYyMEg0VjJ6bTE2IDBIMTR2MmgydjE2SDZ2LTJoLTR2MTZoMTZWMnptLTQgMHYySDh2LTJoOHptMCA0SDh2Mmg4di0yek04IDEwSDZ2Mmgydi0yem0wIDRoLTJ2Mmgydi0yem0wIDRoLTJ2Mmgydi0yem0wIDRoLTJ2Mmgydi0yem0wIDRoLTJ2Mmgydi0yek04IDE4aDh2LTJIOHYyek0xMiAxMGgydjJoLTJ2LTJ6bTAgNGgydjJoLTJ2LTJ6bTAgNGgydjJoLTJ2LTJ6bTAgNGgydjJoLTJ2LTJ6Ii8+PC9zdmc+;" vertex="1" parent="1">
          <mxGeometry x="40" y="560" width="40" height="40" as="geometry" />
        </mxCell>
        
        <!-- CloudWatch -->
        <mxCell id="cloudwatch" value="CloudWatch" style="shape=image;verticalLabelPosition=bottom;verticalAlign=top;imageAspect=0;aspect=fixed;image=data:image/svg+xml,PHN2ZyB4bWxucz0iaHR0cDovL3d3dy53My5vcmcvMjAwMC9zdmciIHZpZXdCb3g9IjAgMCAyNCAyNCI+PHBhdGggZmlsbD0iIzY2NjY2NiIgZD0iTTQgMmgxNnYyMEg0VjJ6bTE2IDBIMTR2MmgydjE2SDZ2LTJoLTR2MTZoMTZWMnptLTQgMHYySDh2LTJoOHptMCA0SDh2Mmg4di0yek04IDEwSDZ2Mmgydi0yem0wIDRoLTJ2Mmgydi0yem0wIDRoLTJ2Mmgydi0yem0wIDRoLTJ2Mmgydi0yem0wIDRoLTJ2Mmgydi0yek04IDE4aDh2LTJIOHYyek0xMiAxMGgydjJoLTJ2LTJ6bTAgNGgydjJoLTJ2LTJ6bTAgNGgydjJoLTJ2LTJ6bTAgNGgydjJoLTJ2LTJ6Ii8+PC9zdmc+;" vertex="1" parent="1">
          <mxGeometry x="120" y="560" width="40" height="40" as="geometry" />
        </mxCell>
        
        <!-- Lambda -->
        <mxCell id="lambda" value="Lambda" style="shape=image;verticalLabelPosition=bottom;verticalAlign=top;imageAspect=0;aspect=fixed;image=data:image/svg+xml,PHN2ZyB4bWxucz0iaHR0cDovL3d3dy53My5vcmcvMjAwMC9zdmciIHZpZXdCb3g9IjAgMCAyNCAyNCI+PHBhdGggZmlsbD0iIzY2NjY2NiIgZD0iTTQgMmgxNnYyMEg0VjJ6bTE2IDBIMTR2MmgydjE2SDZ2LTJoLTR2MTZoMTZWMnptLTQgMHYySDh2LTJoOHptMCA0SDh2Mmg4di0yek08IDEwSDZ2Mmgydi0yem0wIDRoLTJ2Mmgydi0yem0wIDRoLTJ2Mmgydi0yem0wIDRoLTJ2Mmgydi0yem0wIDRoLTJ2Mmgydi0yek04IDE4aDh2LTJIOHYyek0xMiAxMGgydjJoLTJ2LTJ6bTAgNGgydjJoLTJ2LTJ6bTAgNGgydjJoLTJ2LTJ6bTAgNGgydjJoLTJ2LTJ6Ii8+PC9zdmc+;" vertex="1" parent="1">
          <mxGeometry x="200" y="560" width="40" height="40" as="geometry" />
        </mxCell>
        
        <!-- Connections -->
        <mxCell id="conn1" value="" style="endArrow=classic;html=1;rounded=0;exitX=0.5;exitY=1;exitDx=0;exitDy=0;entryX=0.5;entryY=0;entryDx=0;entryDy=0;" edge="1" parent="1" source="igw" target="nat">
          <mxGeometry relative="1" as="geometry" />
        </mxCell>
        
        <mxCell id="conn2" value="" style="endArrow=classic;html=1;rounded=0;exitX=0.5;exitY=1;exitDx=0;exitDy=0;entryX=0.5;entryY=0;entryDx=0;entryDy=0;" edge="1" parent="1" source="nat" target="head_node">
          <mxGeometry relative="1" as="geometry" />
        </mxCell>
        
        <mxCell id="conn3" value="" style="endArrow=classic;html=1;rounded=0;exitX=0.5;exitY=1;exitDx=0;exitDy=0;entryX=0.5;entryY=0;entryDx=0;entryDy=0;" edge="1" parent="1" source="head_node" target="compute_nodes">
          <mxGeometry relative="1" as="geometry" />
        </mxCell>
        
        <mxCell id="conn4" value="" style="endArrow=classic;html=1;rounded=0;exitX=0.5;exitY=1;exitDx=0;exitDy=0;entryX=0.5;entryY=0;entryDx=0;entryDy=0;" edge="1" parent="1" source="compute_nodes" target="fsx">
          <mxGeometry relative="1" as="geometry" />
        </mxCell>
        
        <mxCell id="conn5" value="" style="endArrow=classic;html=1;rounded=0;exitX=0.5;exitY=1;exitDx=0;exitDy=0;entryX=0.5;entryY=0;entryDx=0;entryDy=0;" edge="1" parent="1" source="fsx" target="s3">
          <mxGeometry relative="1" as="geometry" />
        </mxCell>
        
        <mxCell id="conn6" value="" style="endArrow=classic;html=1;rounded=0;exitX=0.5;exitY=1;exitDx=0;exitDy=0;entryX=0.5;entryY=0;entryDx=0;entryDy=0;" edge="1" parent="1" source="head_node" target="cloudwatch">
          <mxGeometry relative="1" as="geometry" />
        </mxCell>
        
        <mxCell id="conn7" value="" style="endArrow=classic;html=1;rounded=0;exitX=0.5;exitY=1;exitDx=0;exitDy=0;entryX=0.5;entryY=0;entryDx=0;entryDy=0;" edge="1" parent="1" source="cloudwatch" target="lambda">
          <mxGeometry relative="1" as="geometry" />
        </mxCell>
        
        <!-- Labels -->
        <mxCell id="label1" value="Internet" style="text;html=1;strokeColor=none;fillColor=none;align=center;verticalAlign=middle;whiteSpace=wrap;rounded=0;" vertex="1" parent="1">
          <mxGeometry x="40" y="20" width="60" height="20" as="geometry" />
        </mxCell>
        
        <mxCell id="label2" value="Data Lake" style="text;html=1;strokeColor=none;fillColor=none;align=center;verticalAlign=middle;whiteSpace=wrap;rounded=0;" vertex="1" parent="1">
          <mxGeometry x="40" y="540" width="60" height="20" as="geometry" />
        </mxCell>
        
        <mxCell id="label3" value="Monitoring" style="text;html=1;strokeColor=none;fillColor=none;align=center;verticalAlign=middle;whiteSpace=wrap;rounded=0;" vertex="1" parent="1">
          <mxGeometry x="120" y="540" width="60" height="20" as="geometry" />
        </mxCell>
        
        <mxCell id="label4" value="Auto-shutdown" style="text;html=1;strokeColor=none;fillColor=none;align=center;verticalAlign=middle;whiteSpace=wrap;rounded=0;" vertex="1" parent="1">
          <mxGeometry x="200" y="540" width="60" height="20" as="geometry" />
        </mxCell>
      </root>
    </mxGraphModel>
  </diagram>
</mxfile> 